# xmcd
#
# Track frame offsets: 
#        150
#        11172
#        21477
#        32198
#        45620
#        54457
#        64700
#        74470
#        84816
#        96988
#
# Disc length: 1489 seconds
#
# Revision: 0
# Processed by: cddbd v1.4PL0 Copyright (c) Steve Scherf et al.
# Submitted via: ExactAudioCopy v0.95a3
#
DISCID=8305cf0a
DTITLE=Willie Nelson - Box Of Willie Nelson - Disc Three
DYEAR=2003
DGENRE=Country
TTITLE0=New Way to Cry
TTITLE1=Blame It On The Times
TTITLE2=Go Away
TTITLE3=Everything But You
TTITLE4=The Ghost
TTITLE5=Broken Promises
TTITLE6=I Didn't Sleep A Wink
TTITLE7=Touch Me (live)
TTITLE8=I Can't Find The Time
TTITLE9=And So Will You My Love
EXTD=
EXTT0=
EXTT1=
EXTT2=
EXTT3=
EXTT4=
EXTT5=
EXTT6=
EXTT7=
EXTT8=
EXTT9=
PLAYORDER=
